# xmcd
#
# Track frame offsets:
#	150
#	15522
#	31122
#	46482
#	57225
#	72125
#	84432
#	97920
#	111195
#	125392
#	137137
#	148010
#	161425
#	180282
#
# Disc length: 2603 seconds
#
# Revision: 0
# Processed by: cddbd v1.5.1PL0 Copyright (c) Steve Scherf et al.
# Submitted via: dBpowerAMP V4.0
#
DISCID=ad0a290e
DTITLE=Dagmar - Immer gut drauf
DYEAR=1993
DGENRE=Country
TTITLE0=Wir sind immer gut drauf
TTITLE1=Mein größter Schatz der liegt zu Haus
TTITLE2=Schau dem Morgen ins Gesicht
TTITLE3=Bing Bäng Bumm
TTITLE4=Ich liebe Dich boch in hundert Jahren
TTITLE5=Action
TTITLE6=Laß mich damit bloß in Ruhe
TTITLE7=Ich küß' die Sterne
TTITLE8=Ich mag starke Männer
TTITLE9=Ich hab' noch Träume
TTITLE10=Immer nur Du
TTITLE11=Mir geht es Country
TTITLE12=Wir sind alle gleich
TTITLE13=Tränen wie Feuer
EXTD=
EXTT0=
EXTT1=
EXTT2=
EXTT3=
EXTT4=
EXTT5=
EXTT6=
EXTT7=
EXTT8=
EXTT9=
EXTT10=
EXTT11=
EXTT12=
EXTT13=
PLAYORDER=
